<svg width="112" height="172" viewBox="0 0 112 172" fill="none" xmlns="http://www.w3.org/2000/svg">
<path d="M3.167 158.146C3.167 157.002 3.33567 155.931 3.673 154.934C4.01033 153.922 4.49433 153.049 5.125 152.316C5.77033 151.568 6.555 150.981 7.479 150.556C8.41767 150.131 9.47367 149.918 10.647 149.918C11.571 149.918 12.3703 150.043 13.045 150.292C13.7197 150.527 14.2843 150.827 14.739 151.194C15.2083 151.546 15.5897 151.935 15.883 152.36C16.1763 152.785 16.3963 153.189 16.543 153.57C16.7043 153.937 16.8143 154.259 16.873 154.538C16.9317 154.802 16.961 154.949 16.961 154.978H15.993C15.8903 154.318 15.6777 153.731 15.355 153.218C15.0323 152.69 14.629 152.243 14.145 151.876C13.661 151.509 13.1183 151.231 12.517 151.04C11.9303 150.849 11.307 150.754 10.647 150.754C9.62033 150.754 8.70367 150.952 7.897 151.348C7.09033 151.744 6.40833 152.279 5.851 152.954C5.29367 153.614 4.86833 154.391 4.575 155.286C4.28167 156.181 4.135 157.134 4.135 158.146C4.135 159.158 4.28167 160.111 4.575 161.006C4.86833 161.901 5.29367 162.685 5.851 163.36C6.40833 164.02 7.09033 164.548 7.897 164.944C8.70367 165.34 9.62033 165.538 10.647 165.538C11.4097 165.538 12.121 165.384 12.781 165.076C13.4557 164.753 14.0423 164.335 14.541 163.822C15.0397 163.294 15.4357 162.693 15.729 162.018C16.037 161.329 16.213 160.617 16.257 159.884H17.225C17.137 160.823 16.9023 161.688 16.521 162.48C16.1543 163.272 15.6777 163.961 15.091 164.548C14.519 165.12 13.8517 165.567 13.089 165.89C12.3263 166.213 11.5123 166.374 10.647 166.374C9.47367 166.374 8.41767 166.161 7.479 165.736C6.555 165.311 5.77033 164.731 5.125 163.998C4.49433 163.25 4.01033 162.377 3.673 161.38C3.33567 160.368 3.167 159.29 3.167 158.146ZM18.5692 160.346C18.5692 159.539 18.6792 158.784 18.8992 158.08C19.1339 157.361 19.4712 156.731 19.9112 156.188C20.3512 155.645 20.8939 155.22 21.5392 154.912C22.1846 154.589 22.9252 154.428 23.7612 154.428C24.5972 154.428 25.3379 154.589 25.9832 154.912C26.6286 155.22 27.1712 155.645 27.6112 156.188C28.0512 156.731 28.3812 157.361 28.6012 158.08C28.8359 158.784 28.9532 159.539 28.9532 160.346C28.9532 161.153 28.8359 161.915 28.6012 162.634C28.3812 163.353 28.0512 163.983 27.6112 164.526C27.1712 165.054 26.6286 165.479 25.9832 165.802C25.3379 166.11 24.5972 166.264 23.7612 166.264C22.9252 166.264 22.1846 166.11 21.5392 165.802C20.8939 165.479 20.3512 165.054 19.9112 164.526C19.4712 163.983 19.1339 163.353 18.8992 162.634C18.6792 161.915 18.5692 161.153 18.5692 160.346ZM19.4052 160.346C19.4052 161.021 19.5006 161.673 19.6912 162.304C19.8819 162.92 20.1606 163.47 20.5272 163.954C20.8939 164.438 21.3486 164.827 21.8912 165.12C22.4339 165.399 23.0572 165.538 23.7612 165.538C24.4652 165.538 25.0886 165.399 25.6312 165.12C26.1739 164.827 26.6286 164.438 26.9952 163.954C27.3619 163.47 27.6406 162.92 27.8312 162.304C28.0219 161.673 28.1172 161.021 28.1172 160.346C28.1172 159.671 28.0219 159.026 27.8312 158.41C27.6406 157.779 27.3619 157.222 26.9952 156.738C26.6286 156.254 26.1739 155.873 25.6312 155.594C25.0886 155.301 24.4652 155.154 23.7612 155.154C23.0572 155.154 22.4339 155.301 21.8912 155.594C21.3486 155.873 20.8939 156.254 20.5272 156.738C20.1606 157.222 19.8819 157.779 19.6912 158.41C19.5006 159.026 19.4052 159.671 19.4052 160.346ZM39.8676 166H39.0316V163.58H38.9876C38.841 164.005 38.6283 164.387 38.3496 164.724C38.0856 165.047 37.7703 165.325 37.4036 165.56C37.0516 165.795 36.663 165.971 36.2376 166.088C35.8123 166.205 35.3796 166.264 34.9396 166.264C34.2796 166.264 33.715 166.183 33.2456 166.022C32.791 165.861 32.417 165.648 32.1236 165.384C31.8303 165.12 31.5956 164.827 31.4196 164.504C31.2583 164.167 31.141 163.829 31.0676 163.492C30.9943 163.155 30.9503 162.832 30.9356 162.524C30.921 162.201 30.9136 161.923 30.9136 161.688V154.692H31.7496V161.842C31.7496 162.135 31.7716 162.495 31.8156 162.92C31.8596 163.331 31.9843 163.734 32.1896 164.13C32.4096 164.511 32.7323 164.841 33.1576 165.12C33.583 165.399 34.1843 165.538 34.9616 165.538C35.5923 165.538 36.157 165.421 36.6556 165.186C37.169 164.951 37.6016 164.629 37.9536 164.218C38.3056 163.793 38.5696 163.294 38.7456 162.722C38.9363 162.135 39.0316 161.497 39.0316 160.808V154.692H39.8676V166ZM42.3218 154.692H43.1578V157.112H43.2018C43.3485 156.687 43.5538 156.313 43.8178 155.99C44.0965 155.653 44.4118 155.367 44.7638 155.132C45.1305 154.897 45.5265 154.721 45.9518 154.604C46.3772 154.487 46.8098 154.428 47.2498 154.428C47.9098 154.428 48.4672 154.509 48.9218 154.67C49.3912 154.831 49.7725 155.044 50.0658 155.308C50.3592 155.572 50.5865 155.873 50.7478 156.21C50.9238 156.533 51.0485 156.863 51.1218 157.2C51.1952 157.537 51.2392 157.867 51.2538 158.19C51.2685 158.498 51.2758 158.769 51.2758 159.004V166H50.4398V158.85C50.4398 158.571 50.4178 158.219 50.3738 157.794C50.3298 157.369 50.1978 156.965 49.9778 156.584C49.7725 156.188 49.4498 155.851 49.0098 155.572C48.5845 155.293 47.9905 155.154 47.2278 155.154C46.5825 155.154 46.0105 155.271 45.5118 155.506C45.0132 155.741 44.5878 156.071 44.2358 156.496C43.8838 156.907 43.6125 157.405 43.4218 157.992C43.2458 158.564 43.1578 159.195 43.1578 159.884V166H42.3218V154.692ZM62.244 158.19C62.2 157.691 62.068 157.251 61.848 156.87C61.6427 156.489 61.3714 156.173 61.034 155.924C60.6967 155.675 60.3007 155.484 59.846 155.352C59.406 155.22 58.9294 155.154 58.416 155.154C57.712 155.154 57.0887 155.301 56.546 155.594C56.0034 155.873 55.5487 156.254 55.182 156.738C54.8154 157.207 54.5367 157.75 54.346 158.366C54.1554 158.967 54.06 159.591 54.06 160.236C54.06 160.999 54.148 161.703 54.324 162.348C54.5 162.993 54.7714 163.558 55.138 164.042C55.5047 164.511 55.9594 164.878 56.502 165.142C57.0447 165.406 57.6827 165.538 58.416 165.538C58.944 165.538 59.428 165.45 59.868 165.274C60.3227 165.098 60.7187 164.856 61.056 164.548C61.408 164.24 61.694 163.873 61.914 163.448C62.134 163.008 62.2807 162.531 62.354 162.018H63.19C63.102 162.693 62.9187 163.294 62.64 163.822C62.3614 164.35 62.0094 164.797 61.584 165.164C61.1587 165.516 60.6747 165.787 60.132 165.978C59.5894 166.169 59.0174 166.264 58.416 166.264C57.492 166.264 56.7 166.103 56.04 165.78C55.3947 165.443 54.8594 164.995 54.434 164.438C54.0234 163.881 53.7154 163.243 53.51 162.524C53.3194 161.791 53.224 161.028 53.224 160.236C53.224 159.444 53.334 158.696 53.554 157.992C53.7887 157.288 54.126 156.672 54.566 156.144C55.006 155.616 55.5487 155.198 56.194 154.89C56.8394 154.582 57.58 154.428 58.416 154.428C59.032 154.428 59.604 154.509 60.132 154.67C60.6747 154.817 61.1514 155.044 61.562 155.352C61.9874 155.66 62.332 156.056 62.596 156.54C62.86 157.009 63.0214 157.559 63.08 158.19H62.244ZM65.4683 160.456V160.588C65.4683 161.248 65.5563 161.879 65.7323 162.48C65.9083 163.081 66.1649 163.609 66.5023 164.064C66.8543 164.519 67.2869 164.878 67.8003 165.142C68.3283 165.406 68.9369 165.538 69.6263 165.538C70.7556 165.538 71.6503 165.245 72.3103 164.658C72.9703 164.057 73.4249 163.228 73.6743 162.172H74.5103C74.2609 163.492 73.7183 164.504 72.8823 165.208C72.0609 165.912 70.9683 166.264 69.6043 166.264C68.7683 166.264 68.0349 166.117 67.4043 165.824C66.7883 165.516 66.2676 165.105 65.8423 164.592C65.4316 164.064 65.1236 163.448 64.9183 162.744C64.7129 162.025 64.6103 161.255 64.6103 160.434C64.6103 159.642 64.7129 158.887 64.9183 158.168C65.1383 157.435 65.4609 156.797 65.8863 156.254C66.3116 155.697 66.8396 155.257 67.4703 154.934C68.1156 154.597 68.8709 154.428 69.7363 154.428C70.5283 154.428 71.2249 154.575 71.8263 154.868C72.4423 155.161 72.9556 155.565 73.3663 156.078C73.7769 156.577 74.0849 157.163 74.2903 157.838C74.5103 158.498 74.6203 159.209 74.6203 159.972C74.6203 160.045 74.6129 160.133 74.5983 160.236C74.5983 160.324 74.5983 160.397 74.5983 160.456H65.4683ZM73.7623 159.73C73.7329 159.114 73.6303 158.535 73.4543 157.992C73.2783 157.435 73.0143 156.951 72.6623 156.54C72.3249 156.115 71.9069 155.777 71.4083 155.528C70.9243 155.279 70.3669 155.154 69.7363 155.154C69.0616 155.154 68.4676 155.286 67.9543 155.55C67.4409 155.799 67.0083 156.137 66.6562 156.562C66.3043 156.973 66.0329 157.457 65.8423 158.014C65.6516 158.571 65.5343 159.143 65.4903 159.73H73.7623ZM77.5805 150.292V166H76.7445V150.292H77.5805ZM81.2758 150.292V166H80.4398V150.292H81.2758ZM84.1351 152.558V150.292H84.9711V152.558H84.1351ZM84.1351 166V154.692H84.9711V166H84.1351ZM87.6324 154.692H88.4684V157.112H88.5124C88.6591 156.687 88.8644 156.313 89.1284 155.99C89.4071 155.653 89.7224 155.367 90.0744 155.132C90.4411 154.897 90.8371 154.721 91.2624 154.604C91.6877 154.487 92.1204 154.428 92.5604 154.428C93.2204 154.428 93.7777 154.509 94.2324 154.67C94.7017 154.831 95.0831 155.044 95.3764 155.308C95.6697 155.572 95.8971 155.873 96.0584 156.21C96.2344 156.533 96.3591 156.863 96.4324 157.2C96.5057 157.537 96.5497 157.867 96.5644 158.19C96.5791 158.498 96.5864 158.769 96.5864 159.004V166H95.7504V158.85C95.7504 158.571 95.7284 158.219 95.6844 157.794C95.6404 157.369 95.5084 156.965 95.2884 156.584C95.0831 156.188 94.7604 155.851 94.3204 155.572C93.8951 155.293 93.3011 155.154 92.5384 155.154C91.8931 155.154 91.3211 155.271 90.8224 155.506C90.3237 155.741 89.8984 156.071 89.5464 156.496C89.1944 156.907 88.9231 157.405 88.7324 157.992C88.5564 158.564 88.4684 159.195 88.4684 159.884V166H87.6324V154.692ZM108.391 154.692V165.406C108.391 166.037 108.317 166.645 108.171 167.232C108.024 167.833 107.767 168.361 107.401 168.816C107.049 169.271 106.557 169.63 105.927 169.894C105.296 170.173 104.497 170.312 103.529 170.312C102.927 170.312 102.363 170.246 101.835 170.114C101.307 169.997 100.845 169.799 100.449 169.52C100.053 169.256 99.7299 168.897 99.4806 168.442C99.2459 168.002 99.1139 167.452 99.0846 166.792H99.9206C99.9646 167.291 100.089 167.716 100.295 168.068C100.5 168.42 100.764 168.706 101.087 168.926C101.424 169.161 101.798 169.329 102.209 169.432C102.619 169.535 103.059 169.586 103.529 169.586C104.306 169.586 104.951 169.469 105.465 169.234C105.993 168.999 106.411 168.691 106.719 168.31C107.027 167.943 107.239 167.518 107.357 167.034C107.489 166.565 107.555 166.088 107.555 165.604V163.008H107.511C107.115 163.844 106.572 164.482 105.883 164.922C105.208 165.362 104.387 165.582 103.419 165.582C102.583 165.582 101.857 165.443 101.241 165.164C100.639 164.871 100.133 164.475 99.7226 163.976C99.3266 163.463 99.0259 162.869 98.8206 162.194C98.6299 161.519 98.5346 160.786 98.5346 159.994C98.5346 159.246 98.6373 158.535 98.8426 157.86C99.0626 157.185 99.3779 156.599 99.7886 156.1C100.199 155.587 100.705 155.183 101.307 154.89C101.923 154.582 102.627 154.428 103.419 154.428C104.313 154.428 105.135 154.655 105.883 155.11C106.645 155.565 107.188 156.21 107.511 157.046H107.555V154.692H108.391ZM103.419 155.154C102.729 155.154 102.128 155.293 101.615 155.572C101.116 155.851 100.698 156.217 100.361 156.672C100.038 157.127 99.7886 157.647 99.6126 158.234C99.4513 158.806 99.3706 159.393 99.3706 159.994C99.3706 160.654 99.4513 161.285 99.6126 161.886C99.7886 162.473 100.045 162.986 100.383 163.426C100.735 163.866 101.16 164.218 101.659 164.482C102.172 164.731 102.759 164.856 103.419 164.856C104.108 164.856 104.709 164.724 105.223 164.46C105.736 164.196 106.161 163.837 106.499 163.382C106.851 162.927 107.107 162.414 107.269 161.842C107.445 161.255 107.533 160.639 107.533 159.994C107.533 159.363 107.445 158.755 107.269 158.168C107.107 157.581 106.851 157.068 106.499 156.628C106.161 156.173 105.736 155.814 105.223 155.55C104.709 155.286 104.108 155.154 103.419 155.154Z" fill="#292967"/>
<path d="M0.775504 124.7H11.2155V125.338H8.1415V144.362H9.1855C10.8288 144.362 12.1338 143.859 13.1005 142.854C14.0865 141.849 15.0822 140.302 16.0875 138.214H16.6965L16.1455 145H0.775504V144.362H2.4865V125.338H0.775504V124.7ZM21.9949 129.195C20.9702 129.195 20.2356 128.934 19.7909 128.412C19.3656 127.89 19.1529 127.242 19.1529 126.469C19.1529 125.696 19.3849 125.058 19.8489 124.555C20.3322 124.052 21.0572 123.801 22.0239 123.801C22.9906 123.801 23.7252 124.033 24.2279 124.497C24.7306 124.942 24.9819 125.589 24.9819 126.44C24.9819 127.271 24.7402 127.938 24.2569 128.441C23.7736 128.944 23.0196 129.195 21.9949 129.195ZM17.6159 131.196H24.7209V144.478H26.3449V145H17.7319V144.478H19.3269V131.718H17.6159V131.196ZM35.723 123.076C34.9883 123.076 34.505 123.356 34.273 123.917C34.041 124.458 33.925 125.338 33.925 126.556V131.196H37.753V131.718H33.925V144.478H37.463V145H26.936V144.478H28.531V131.718H26.849V131.196H28.531V131.08C28.531 128.296 29.0627 126.189 30.126 124.758C31.1893 123.308 32.968 122.583 35.462 122.583C37.1053 122.583 38.2847 122.912 39 123.569C39.7153 124.207 40.073 124.951 40.073 125.802C40.073 126.653 39.8507 127.291 39.406 127.716C38.9613 128.141 38.3717 128.354 37.637 128.354C36.9023 128.354 36.332 128.17 35.926 127.803C35.5393 127.416 35.346 126.981 35.346 126.498C35.346 125.995 35.404 125.512 35.52 125.048H36.622C37.0087 123.733 36.709 123.076 35.723 123.076ZM45.0982 145.29C42.6042 145.29 40.7288 144.652 39.4722 143.376C38.2348 142.081 37.6162 140.292 37.6162 138.011C37.6162 135.71 38.3122 133.951 39.7042 132.733C41.1155 131.515 42.9038 130.906 45.0692 130.906C49.4578 130.906 51.5652 133.11 51.3912 137.518H43.2132V138.649C43.2132 140.544 43.4548 141.974 43.9382 142.941C44.4215 143.908 45.2625 144.391 46.4612 144.391C48.7038 144.391 50.1732 143.192 50.8692 140.795L51.3912 140.882C51.0238 142.274 50.3568 143.357 49.3902 144.13C48.4428 144.903 47.0122 145.29 45.0982 145.29ZM43.2422 136.938H46.2292V135.517C46.2292 133.951 46.1325 132.888 45.9392 132.327C45.7652 131.747 45.3978 131.457 44.8372 131.457C44.2958 131.457 43.8898 131.766 43.6192 132.385C43.3678 132.984 43.2422 134.028 43.2422 135.517V136.938ZM63.0093 137.199C63.0093 135.208 62.9126 133.874 62.7193 133.197C62.5259 132.501 62.1489 132.153 61.5883 132.153C61.0276 132.153 60.5249 132.501 60.0803 133.197C59.6356 133.893 59.4133 134.85 59.4133 136.068V141.462C59.4133 142.293 59.5776 142.999 59.9063 143.579C60.2543 144.159 60.7376 144.449 61.3563 144.449C61.9943 144.449 62.4293 144.024 62.6613 143.173C62.8933 142.322 63.0093 140.834 63.0093 138.707V137.199ZM59.4133 123.25V133.4C60.1479 131.737 61.4046 130.906 63.1833 130.906C66.7986 130.906 68.6063 133.313 68.6063 138.127C68.6063 140.582 68.1036 142.39 67.0983 143.55C66.1123 144.71 64.6236 145.29 62.6323 145.29C61.6269 145.29 60.8536 145.135 60.3123 144.826C59.7903 144.517 59.4326 144.004 59.2393 143.289L59.0363 145H52.4243V144.478H54.0193V123.772H52.4243V123.25H59.4133ZM78.8401 139.287V136.822C78.8401 134.947 78.7338 133.584 78.5211 132.733C78.3278 131.863 77.8638 131.428 77.1291 131.428C76.7038 131.428 76.3558 131.554 76.0851 131.805C75.8338 132.037 75.6501 132.433 75.5341 132.994C75.3601 133.864 75.2731 135.188 75.2731 136.967V139.229C75.2731 141.336 75.3311 142.603 75.4471 143.028C75.5824 143.453 75.7178 143.801 75.8531 144.072C76.0658 144.536 76.4814 144.768 77.1001 144.768C77.8541 144.768 78.3471 144.333 78.5791 143.463C78.7531 142.844 78.8401 141.452 78.8401 139.287ZM77.0421 145.29C74.6254 145.29 72.7984 144.671 71.5611 143.434C70.3238 142.197 69.7051 140.428 69.7051 138.127C69.7051 135.807 70.3624 134.028 71.6771 132.791C73.0111 131.534 74.8768 130.906 77.2741 130.906C79.6714 130.906 81.4598 131.486 82.6391 132.646C83.8184 133.787 84.4081 135.536 84.4081 137.895C84.4081 142.825 81.9528 145.29 77.0421 145.29ZM92.1792 138.185H93.0202V135.952C93.0202 134.115 92.9139 132.888 92.7012 132.269C92.5079 131.631 92.1212 131.312 91.5412 131.312C91.1932 131.312 90.8742 131.409 90.5842 131.602C90.3135 131.776 90.1782 132.027 90.1782 132.356C90.1782 132.665 90.2362 132.984 90.3522 133.313H91.0772C91.2319 133.719 91.3092 134.212 91.3092 134.792C91.3092 135.353 91.0675 135.846 90.5842 136.271C90.1009 136.677 89.4919 136.88 88.7572 136.88C87.0945 136.88 86.2632 136.078 86.2632 134.473C86.2632 132.095 88.2835 130.906 92.3242 130.906C94.6249 130.906 96.2102 131.302 97.0802 132.095C97.9695 132.868 98.4142 134.299 98.4142 136.387V142.274C98.4142 143.279 98.6945 143.782 99.2552 143.782C99.9125 143.782 100.299 142.786 100.415 140.795L100.85 140.824C100.773 142.525 100.454 143.695 99.8932 144.333C99.3325 144.971 98.4142 145.29 97.1382 145.29C94.8182 145.29 93.4842 144.575 93.1362 143.144C92.8849 143.879 92.5079 144.42 92.0052 144.768C91.5025 145.116 90.7679 145.29 89.8012 145.29C86.9399 145.29 85.5092 144.12 85.5092 141.781C85.5092 140.408 86.0505 139.471 87.1332 138.968C88.2352 138.446 89.9172 138.185 92.1792 138.185ZM91.0192 141.752C91.0192 142.757 91.0675 143.405 91.1642 143.695C91.2802 143.985 91.4832 144.13 91.7732 144.13C92.0825 144.13 92.3629 143.888 92.6142 143.405C92.8849 142.902 93.0202 142.216 93.0202 141.346V138.649H92.8172C91.6185 138.649 91.0192 139.529 91.0192 141.288V141.752ZM102.16 140.853V131.718H100.565V131.196H102.16V127.455L107.554 126.121V131.196H111.324V131.718H107.554V141.491C107.554 142.4 107.641 143.067 107.815 143.492C108.009 143.917 108.395 144.13 108.975 144.13C109.555 144.13 110.058 143.84 110.483 143.26C110.928 142.68 111.218 141.887 111.353 140.882L111.846 140.94C111.692 142.274 111.266 143.337 110.57 144.13C109.874 144.903 108.724 145.29 107.119 145.29C105.515 145.29 104.287 144.971 103.436 144.333C102.586 143.695 102.16 142.535 102.16 140.853Z" fill="#292967"/>
<path d="M24.3552 42C19.8551 49.5 21.3551 40.5 21.3551 96.5" stroke="#292967" stroke-width="4" stroke-linecap="round" stroke-linejoin="round"/>
<path d="M8.85509 40L6.9271 39.4681L6.9271 39.4681L8.85509 40ZM16.855 61C16.855 59.8954 15.9596 59 14.855 59C13.7504 59 12.855 59.8954 12.855 61H16.855ZM14.855 86.5L14.5234 88.4723L14.5234 88.4723L14.855 86.5ZM104.137 68.5L106.097 68.901L106.097 68.901L104.137 68.5ZM93.7934 86.7506C93.1034 87.6131 93.2432 88.8717 94.1057 89.5617C94.9682 90.2518 96.2268 90.1119 96.9168 89.2494L93.7934 86.7506ZM98.8551 75.5L99.8009 77.2622C99.9598 77.177 100.106 77.0706 100.237 76.946L98.8551 75.5ZM88.8551 78.5L88.5723 80.4799C88.6659 80.4933 88.7605 80.5 88.8551 80.5V78.5ZM82.2278 72.7978C81.8399 71.7635 80.6871 71.2395 79.6529 71.6273C78.6186 72.0152 78.0946 73.168 78.4824 74.2022L82.2278 72.7978ZM10.7831 40.5319C14.6735 26.429 28.7209 4 55.8551 4V0C26.1041 0 11.0367 24.571 6.9271 39.4681L10.7831 40.5319ZM55.8551 4C82.9743 4 103.355 28.4294 103.355 56H107.355C107.355 26.6852 85.6213 0 55.8551 0V4ZM12.855 61C12.855 63.78 13.1935 70.3408 13.3579 75.9554C13.4415 78.8096 13.4815 81.4356 13.4208 83.3197C13.39 84.2774 13.3353 84.9588 13.2673 85.3617C13.2291 85.588 13.2095 85.5811 13.262 85.4681C13.2858 85.4169 13.3965 85.1818 13.6629 84.9509C13.9881 84.6691 14.5328 84.4178 15.1866 84.5277L14.5234 88.4723C15.2609 88.5963 15.8841 88.3191 16.2827 87.9736C16.6225 87.6791 16.8018 87.3424 16.8893 87.1542C17.0693 86.767 17.1582 86.3432 17.2115 86.0274C17.3265 85.3457 17.3868 84.4411 17.4188 83.4483C17.4837 81.4317 17.44 78.6999 17.3562 75.8384C17.1859 70.0217 16.855 63.72 16.855 61H12.855ZM15.1866 84.5277C15.4755 84.5762 15.5655 84.7025 15.4514 84.6001C15.3548 84.5135 15.1884 84.33 14.9654 84.0009C14.5208 83.3443 13.9989 82.3295 13.4476 80.9641C12.3517 78.2501 11.2457 74.4183 10.4098 69.9596C8.73273 61.0142 8.20434 49.8798 10.7831 40.5319L6.9271 39.4681C4.12654 49.6202 4.73976 61.4234 6.4783 70.6967C7.35021 75.3475 8.52053 79.4454 9.73856 82.4618C10.3442 83.9617 10.9887 85.2622 11.6535 86.2439C11.9853 86.7338 12.3593 87.2 12.7807 87.578C13.1845 87.9401 13.77 88.3456 14.5234 88.4723L15.1866 84.5277ZM103.355 56C103.355 60.3477 102.938 64.3858 102.178 68.099L106.097 68.901C106.913 64.911 107.355 60.6037 107.355 56H103.355ZM102.178 68.099C100.618 75.7194 97.614 81.9749 93.7934 86.7506L96.9168 89.2494C101.165 83.9394 104.421 77.0903 106.097 68.901L102.178 68.099ZM104.137 68.5C102.188 68.0533 102.188 68.052 102.189 68.0506C102.189 68.0502 102.189 68.0489 102.189 68.0481C102.19 68.0464 102.19 68.0447 102.19 68.0431C102.191 68.0399 102.192 68.0368 102.193 68.0339C102.194 68.028 102.195 68.0228 102.196 68.0182C102.199 68.009 102.201 68.0023 102.202 67.9981C102.204 67.9897 102.204 67.9913 102.2 68.0027C102.193 68.0256 102.171 68.0883 102.129 68.19C102.044 68.393 101.874 68.7534 101.56 69.2631C100.931 70.2834 99.7247 71.9028 97.4734 74.054L100.237 76.946C102.695 74.5972 104.13 72.7166 104.965 71.3619C105.383 70.6841 105.65 70.1382 105.82 69.7319C105.905 69.5289 105.965 69.3611 106.007 69.2297C106.028 69.164 106.045 69.1075 106.058 69.0602C106.065 69.0366 106.07 69.0154 106.075 68.9964C106.077 68.987 106.08 68.9781 106.082 68.9698C106.083 68.9657 106.083 68.9617 106.084 68.9578C106.085 68.9559 106.085 68.954 106.086 68.9522C106.086 68.9512 106.086 68.9499 106.086 68.9494C106.087 68.9481 106.087 68.9467 104.137 68.5ZM97.9093 73.7378C96.9067 74.2758 96.1614 74.7518 95.5737 75.1164C94.9742 75.4884 94.5737 75.7214 94.1322 75.902C93.2874 76.2476 92.0474 76.5 88.8551 76.5V80.5C92.1628 80.5 94.0519 80.2566 95.6467 79.6042C96.4249 79.2858 97.0718 78.8943 97.6824 78.5155C98.3049 78.1293 98.9325 77.7283 99.8009 77.2622L97.9093 73.7378ZM89.1379 76.5201C86.0096 76.0732 84.2575 74.984 83.318 74.1384C82.8393 73.7075 82.5465 73.3174 82.3834 73.0625C82.3016 72.9347 82.2522 72.8405 82.2283 72.792C82.2164 72.7678 82.211 72.7551 82.2112 72.7555C82.2112 72.7557 82.2127 72.7592 82.2155 72.7662C82.2169 72.7696 82.2187 72.774 82.2207 72.7793C82.2217 72.7819 82.2228 72.7847 82.224 72.7878C82.2246 72.7894 82.2252 72.791 82.2258 72.7926C82.2261 72.7934 82.2266 72.7947 82.2268 72.7951C82.2273 72.7964 82.2278 72.7978 80.3551 73.5C78.4824 74.2022 78.4829 74.2036 78.4835 74.2049C78.4836 74.2054 78.4842 74.2068 78.4845 74.2077C78.4852 74.2096 78.486 74.2116 78.4868 74.2136C78.4883 74.2177 78.49 74.222 78.4917 74.2265C78.4953 74.2357 78.4992 74.2458 78.5037 74.2569C78.5126 74.279 78.5234 74.3051 78.5362 74.3348C78.5617 74.3943 78.5953 74.4685 78.6381 74.5556C78.7237 74.7298 78.8461 74.9559 79.0143 75.2187C79.3512 75.7451 79.8709 76.4175 80.6422 77.1116C82.2027 78.516 84.7006 79.9268 88.5723 80.4799L89.1379 76.5201Z" fill="#292967"/>
<path d="M13.3571 54.0888C13.4061 55.1923 14.3404 56.0471 15.4439 55.998C16.5474 55.949 17.4022 55.0147 17.3531 53.9112L13.3571 54.0888ZM55.3551 8.5V6.5C55.3279 6.5 55.3007 6.50055 55.2735 6.50166L55.3551 8.5ZM95.3551 63L93.3833 62.6652C93.3645 62.7758 93.3551 62.8878 93.3551 63H95.3551ZM88.3551 64.5L90.3429 64.7209L90.3429 64.7209L88.3551 64.5ZM89.8551 52.5L87.8624 52.3296L87.8624 52.3296L89.8551 52.5ZM90.2525 39.3675C89.9032 38.3197 88.7705 37.7533 87.7226 38.1026C86.6748 38.4519 86.1084 39.5846 86.4577 40.6325L90.2525 39.3675ZM17.3531 53.9112C16.3944 32.3405 32.2123 11.4463 55.4366 10.4983L55.2735 6.50166C29.4979 7.55373 12.3157 30.6595 13.3571 54.0888L17.3531 53.9112ZM55.3551 10.5C69.6513 10.5 80.1635 17.1355 86.6238 26.9149C93.1233 36.7534 95.5591 49.8521 93.3833 62.6652L97.3269 63.3348C99.6511 49.6479 97.087 35.4966 89.9614 24.7101C82.7967 13.8645 71.0589 6.5 55.3551 6.5V10.5ZM93.3551 63C93.3551 64.6532 92.9549 65.6154 92.5755 66.1211C92.2081 66.6109 91.8164 66.7474 91.5376 66.7597C91.2404 66.7729 90.9374 66.6542 90.7083 66.3874C90.4906 66.1339 90.2426 65.6234 90.3429 64.7209L86.3673 64.2791C85.9458 68.0725 88.4903 70.8984 91.7143 70.7558C95.0226 70.6096 97.3551 67.5289 97.3551 63H93.3551ZM90.3429 64.7209C90.5581 62.7839 90.8534 60.6941 91.1383 58.6093C91.4206 56.5441 91.693 54.4812 91.8478 52.6704L87.8624 52.3296C87.7173 54.0259 87.4585 55.9941 87.1751 58.0677C86.8944 60.1216 86.5897 62.2782 86.3673 64.2791L90.3429 64.7209ZM91.8478 52.6704C92.2563 47.893 91.8393 44.1281 90.2525 39.3675L86.4577 40.6325C87.8709 44.8719 88.2249 48.0901 87.8624 52.3296L91.8478 52.6704Z" fill="#292967"/>
<path d="M32.3551 77.5L32.3551 104.5" stroke="#292967" stroke-width="4" stroke-linecap="round" stroke-linejoin="round"/>
<path d="M48.8551 95.5L48.8551 110.5" stroke="#292967" stroke-width="4" stroke-linecap="round" stroke-linejoin="round"/>
<path d="M62.8551 95.5L62.8551 110.5" stroke="#292967" stroke-width="4" stroke-linecap="round" stroke-linejoin="round"/>
<path d="M70.8551 79.5L70.8551 108.5" stroke="#292967" stroke-width="4" stroke-linecap="round" stroke-linejoin="round"/>
<path d="M79.8551 81.5L79.8551 103.5" stroke="#292967" stroke-width="4" stroke-linecap="round" stroke-linejoin="round"/>
<path d="M87.8551 84.5L87.8551 97.5" stroke="#292967" stroke-width="4" stroke-linecap="round" stroke-linejoin="round"/>
<path d="M40.8551 79.5L40.8551 108.5" stroke="#292967" stroke-width="4" stroke-linecap="round" stroke-linejoin="round"/>
<mask id="path-13-inside-1" fill="white">
<path d="M84.5637 59.1484C84.6885 59.1484 84.8125 59.1188 84.9261 59.062C85.1149 58.966 85.2589 58.7988 85.3245 58.5972L87.8155 50.9714C87.9523 50.5514 87.7235 50.1002 87.3035 49.9626L76.909 46.5665C76.7514 46.5153 76.5922 46.4721 76.4331 46.4377V38.8687L80.5472 37.5247C80.9224 38.1807 81.4783 38.7159 82.1679 39.0655C82.7246 39.3487 83.3278 39.4911 83.9349 39.4911C84.3437 39.4911 84.7549 39.4263 85.1549 39.2959C87.2059 38.6255 88.3307 36.4111 87.6603 34.359C87.3355 33.3646 86.6436 32.5566 85.71 32.0838C84.7773 31.6101 83.7166 31.5293 82.723 31.8534C80.932 32.439 79.8488 34.2006 80.048 36.0046L76.4323 37.1863V34.079C76.4323 22.9451 67.3801 13.7145 56.252 13.5033C50.8132 13.4049 45.6296 15.4906 41.657 19.3883C37.6021 23.3676 35.2767 28.8845 35.2767 34.5238V37.1855L31.6609 36.0038C31.8601 34.1998 30.7778 32.4382 28.9859 31.8526C27.9916 31.5285 26.9316 31.6101 25.9989 32.083C25.0662 32.5558 24.3742 33.3646 24.0486 34.3582C23.3791 36.4103 24.503 38.6247 26.5541 39.2951C26.954 39.4255 27.3652 39.4903 27.774 39.4903C28.3811 39.4903 28.9843 39.3471 29.5411 39.0647C30.2306 38.7151 30.7866 38.1799 31.1617 37.5239L35.2759 38.8679V46.4369C35.1167 46.4713 34.9583 46.5145 34.7999 46.5657L24.4078 49.9626C23.9878 50.1002 23.7582 50.5514 23.8958 50.9714L26.3869 58.5972C26.4533 58.7988 26.5965 58.966 26.7852 59.062C26.8988 59.1196 27.0228 59.1484 27.1476 59.1484C27.2308 59.1484 27.3148 59.1348 27.3964 59.1092L35.2791 56.5339V74.1023C35.2791 75.976 36.803 77.5 38.6764 77.5H41.8986C43.7721 77.5 45.296 75.976 45.296 74.1023V73.0991H66.4177V74.1015C66.4177 75.9752 67.9416 77.4992 69.8151 77.4992H73.0373C74.9108 77.4992 76.4347 75.9752 76.4347 74.1015V56.5331L84.3173 59.1084C84.3965 59.1348 84.4805 59.1484 84.5637 59.1484ZM81.8751 34.5262C82.1551 33.975 82.6326 33.5654 83.2206 33.3734C83.4574 33.2958 83.7006 33.2574 83.9421 33.2574C84.3013 33.2574 84.6581 33.3414 84.9877 33.5086C85.5388 33.7886 85.9484 34.2662 86.1404 34.8542C86.5364 36.0678 85.8724 37.3767 84.6589 37.7735C83.4446 38.1703 82.1359 37.5047 81.7399 36.2919C81.5463 35.7046 81.5951 35.0774 81.8751 34.5262ZM29.9722 36.2927C29.5763 37.5055 28.2675 38.1719 27.0532 37.7743C25.8397 37.3775 25.1758 36.0686 25.5717 34.855C25.7637 34.267 26.1733 33.7894 26.7244 33.5094C27.2756 33.2294 27.902 33.1806 28.4907 33.3734C29.0787 33.5654 29.5563 33.9742 29.8362 34.5262C30.1154 35.0774 30.1642 35.7046 29.9722 36.2927ZM74.8332 46.3697C73.2933 46.5601 71.9014 47.4905 71.159 48.9073L68.016 47.8809V41.6176L74.8324 39.3903V46.3697H74.8332ZM45.2944 40.4567V34.8406C45.2944 29.0101 49.7085 24.2348 55.3433 23.97C58.2615 23.8276 61.0349 24.8644 63.1436 26.8764C65.2538 28.8901 66.4161 31.6045 66.4161 34.5198V40.4567L55.8553 43.9072L45.2944 40.4567ZM53.2786 44.7488L45.2936 47.3577V42.14L53.2786 44.7488ZM41.9818 21.3635L46.9487 26.3308C45.0128 28.4693 43.8121 31.3069 43.7137 34.4318H36.8798C36.903 29.6325 38.7476 24.938 41.9818 21.3635ZM63.7763 25.3116C61.7797 23.5892 59.3326 22.5771 56.7216 22.3955V15.1234C61.3797 15.3354 65.6162 17.2562 68.8184 20.2691L63.7763 25.3116ZM55.1217 22.3859C52.4475 22.5443 50.0237 23.5836 48.0998 25.2196L43.1041 20.2235C46.4487 17.0858 50.678 15.2994 55.1217 15.117V22.3859ZM66.4161 42.1408V47.3585L58.4311 44.7496L66.4161 42.1408ZM68.016 39.9343V36.0318H74.8324V37.7079L68.016 39.9343ZM74.8332 34.4318H68.012C67.9904 31.4365 66.8993 28.6365 64.9218 26.4292L69.9383 21.4123C72.9757 24.7852 74.8332 29.2357 74.8332 34.0774V34.4318ZM36.8774 36.0318H43.6937V39.9343L36.8774 37.7071V36.0318V36.0318ZM43.6945 41.6176V47.8809L40.5515 48.9073C39.8092 47.4905 38.4172 46.5601 36.8774 46.3697V39.3903L43.6945 41.6176ZM25.6645 51.2346L35.2983 48.0865C36.9813 47.5361 38.798 48.4585 39.3476 50.1418C39.614 50.957 39.5468 51.8274 39.1588 52.5922C38.7708 53.357 38.1077 53.9251 37.2925 54.1915L27.6588 57.3395L25.6645 51.2346ZM37.7901 55.7131C39.0116 55.3139 40.0043 54.4635 40.5859 53.317C41.0451 52.413 41.1995 51.4106 41.0499 50.4282L43.6945 49.5642V61.3652H36.8782V56.0107L37.7901 55.7131ZM41.897 75.8992H38.6748C37.6837 75.8992 36.8774 75.0927 36.8774 74.1015V62.9653H43.6937V74.1015C43.6945 75.0927 42.8881 75.8992 41.897 75.8992ZM45.2944 71.4991V49.0417L55.8553 45.5913L66.4161 49.0417V71.4991H45.2944ZM73.0357 75.8992H69.8135C68.8224 75.8992 68.016 75.0927 68.016 74.1015V62.9653H74.8324V74.1015C74.8332 75.0927 74.0268 75.8992 73.0357 75.8992ZM74.8332 61.3652H68.0168V49.5642L70.6615 50.4282C70.5127 51.4106 70.6671 52.413 71.1254 53.317C71.707 54.4627 72.6997 55.3139 73.9212 55.7131L74.8332 56.0107V61.3652ZM74.418 54.1915C73.6029 53.9251 72.9397 53.3578 72.5517 52.5922C72.1638 51.8274 72.0966 50.957 72.3629 50.1418C72.9125 48.4585 74.7284 47.5369 76.4123 48.0865L86.046 51.2346L84.0517 57.3387L74.418 54.1915Z"/>
</mask>
<path d="M84.5637 59.1484C84.6885 59.1484 84.8125 59.1188 84.9261 59.062C85.1149 58.966 85.2589 58.7988 85.3245 58.5972L87.8155 50.9714C87.9523 50.5514 87.7235 50.1002 87.3035 49.9626L76.909 46.5665C76.7514 46.5153 76.5922 46.4721 76.4331 46.4377V38.8687L80.5472 37.5247C80.9224 38.1807 81.4783 38.7159 82.1679 39.0655C82.7246 39.3487 83.3278 39.4911 83.9349 39.4911C84.3437 39.4911 84.7549 39.4263 85.1549 39.2959C87.2059 38.6255 88.3307 36.4111 87.6603 34.359C87.3355 33.3646 86.6436 32.5566 85.71 32.0838C84.7773 31.6101 83.7166 31.5293 82.723 31.8534C80.932 32.439 79.8488 34.2006 80.048 36.0046L76.4323 37.1863V34.079C76.4323 22.9451 67.3801 13.7145 56.252 13.5033C50.8132 13.4049 45.6296 15.4906 41.657 19.3883C37.6021 23.3676 35.2767 28.8845 35.2767 34.5238V37.1855L31.6609 36.0038C31.8601 34.1998 30.7778 32.4382 28.9859 31.8526C27.9916 31.5285 26.9316 31.6101 25.9989 32.083C25.0662 32.5558 24.3742 33.3646 24.0486 34.3582C23.3791 36.4103 24.503 38.6247 26.5541 39.2951C26.954 39.4255 27.3652 39.4903 27.774 39.4903C28.3811 39.4903 28.9843 39.3471 29.5411 39.0647C30.2306 38.7151 30.7866 38.1799 31.1617 37.5239L35.2759 38.8679V46.4369C35.1167 46.4713 34.9583 46.5145 34.7999 46.5657L24.4078 49.9626C23.9878 50.1002 23.7582 50.5514 23.8958 50.9714L26.3869 58.5972C26.4533 58.7988 26.5965 58.966 26.7852 59.062C26.8988 59.1196 27.0228 59.1484 27.1476 59.1484C27.2308 59.1484 27.3148 59.1348 27.3964 59.1092L35.2791 56.5339V74.1023C35.2791 75.976 36.803 77.5 38.6764 77.5H41.8986C43.7721 77.5 45.296 75.976 45.296 74.1023V73.0991H66.4177V74.1015C66.4177 75.9752 67.9416 77.4992 69.8151 77.4992H73.0373C74.9108 77.4992 76.4347 75.9752 76.4347 74.1015V56.5331L84.3173 59.1084C84.3965 59.1348 84.4805 59.1484 84.5637 59.1484ZM81.8751 34.5262C82.1551 33.975 82.6326 33.5654 83.2206 33.3734C83.4574 33.2958 83.7006 33.2574 83.9421 33.2574C84.3013 33.2574 84.6581 33.3414 84.9877 33.5086C85.5388 33.7886 85.9484 34.2662 86.1404 34.8542C86.5364 36.0678 85.8724 37.3767 84.6589 37.7735C83.4446 38.1703 82.1359 37.5047 81.7399 36.2919C81.5463 35.7046 81.5951 35.0774 81.8751 34.5262ZM29.9722 36.2927C29.5763 37.5055 28.2675 38.1719 27.0532 37.7743C25.8397 37.3775 25.1758 36.0686 25.5717 34.855C25.7637 34.267 26.1733 33.7894 26.7244 33.5094C27.2756 33.2294 27.902 33.1806 28.4907 33.3734C29.0787 33.5654 29.5563 33.9742 29.8362 34.5262C30.1154 35.0774 30.1642 35.7046 29.9722 36.2927ZM74.8332 46.3697C73.2933 46.5601 71.9014 47.4905 71.159 48.9073L68.016 47.8809V41.6176L74.8324 39.3903V46.3697H74.8332ZM45.2944 40.4567V34.8406C45.2944 29.0101 49.7085 24.2348 55.3433 23.97C58.2615 23.8276 61.0349 24.8644 63.1436 26.8764C65.2538 28.8901 66.4161 31.6045 66.4161 34.5198V40.4567L55.8553 43.9072L45.2944 40.4567ZM53.2786 44.7488L45.2936 47.3577V42.14L53.2786 44.7488ZM41.9818 21.3635L46.9487 26.3308C45.0128 28.4693 43.8121 31.3069 43.7137 34.4318H36.8798C36.903 29.6325 38.7476 24.938 41.9818 21.3635ZM63.7763 25.3116C61.7797 23.5892 59.3326 22.5771 56.7216 22.3955V15.1234C61.3797 15.3354 65.6162 17.2562 68.8184 20.2691L63.7763 25.3116ZM55.1217 22.3859C52.4475 22.5443 50.0237 23.5836 48.0998 25.2196L43.1041 20.2235C46.4487 17.0858 50.678 15.2994 55.1217 15.117V22.3859ZM66.4161 42.1408V47.3585L58.4311 44.7496L66.4161 42.1408ZM68.016 39.9343V36.0318H74.8324V37.7079L68.016 39.9343ZM74.8332 34.4318H68.012C67.9904 31.4365 66.8993 28.6365 64.9218 26.4292L69.9383 21.4123C72.9757 24.7852 74.8332 29.2357 74.8332 34.0774V34.4318ZM36.8774 36.0318H43.6937V39.9343L36.8774 37.7071V36.0318V36.0318ZM43.6945 41.6176V47.8809L40.5515 48.9073C39.8092 47.4905 38.4172 46.5601 36.8774 46.3697V39.3903L43.6945 41.6176ZM25.6645 51.2346L35.2983 48.0865C36.9813 47.5361 38.798 48.4585 39.3476 50.1418C39.614 50.957 39.5468 51.8274 39.1588 52.5922C38.7708 53.357 38.1077 53.9251 37.2925 54.1915L27.6588 57.3395L25.6645 51.2346ZM37.7901 55.7131C39.0116 55.3139 40.0043 54.4635 40.5859 53.317C41.0451 52.413 41.1995 51.4106 41.0499 50.4282L43.6945 49.5642V61.3652H36.8782V56.0107L37.7901 55.7131ZM41.897 75.8992H38.6748C37.6837 75.8992 36.8774 75.0927 36.8774 74.1015V62.9653H43.6937V74.1015C43.6945 75.0927 42.8881 75.8992 41.897 75.8992ZM45.2944 71.4991V49.0417L55.8553 45.5913L66.4161 49.0417V71.4991H45.2944ZM73.0357 75.8992H69.8135C68.8224 75.8992 68.016 75.0927 68.016 74.1015V62.9653H74.8324V74.1015C74.8332 75.0927 74.0268 75.8992 73.0357 75.8992ZM74.8332 61.3652H68.0168V49.5642L70.6615 50.4282C70.5127 51.4106 70.6671 52.413 71.1254 53.317C71.707 54.4627 72.6997 55.3139 73.9212 55.7131L74.8332 56.0107V61.3652ZM74.418 54.1915C73.6029 53.9251 72.9397 53.3578 72.5517 52.5922C72.1638 51.8274 72.0966 50.957 72.3629 50.1418C72.9125 48.4585 74.7284 47.5369 76.4123 48.0865L86.046 51.2346L84.0517 57.3387L74.418 54.1915Z" stroke="#E94680" stroke-width="8" mask="url(#path-13-inside-1)"/>
</svg>
